font.ufo
<glyph name="Z" format="1">
	<unicode hex="005A"/>
	<advance width="540"/>
	<outline>
		<contour>
			<point x="40" y="0" type="line"/>
			<point x="502" y="0" type="line"/>
			<point x="502" y="98" type="line"/>
			<point x="183" y="98" type="line"/>
			<point x="500" y="584" type="line"/>
			<point x="500" y="654" type="line"/>
			<point x="69" y="654" type="line"/>
			<point x="69" y="556" type="line"/>
			<point x="356" y="556" type="line"/>
			<point x="40" y="70" type="line"/>
		</contour>
		<contour>
			<point name="aboveUC" x="282" y="674" type="move"/>
		</contour>
		<contour>
			<point name="baseLC" x="288" y="0" type="move"/>
		</contour>
		<contour>
			<point name="belowLC" x="282" y="-20" type="move"/>
		</contour>
	</outline>
</glyph>
<glyph name="i" format="1">
	<unicode hex="0069"/>
	<advance width="262"/>
	<outline>
		<contour>
			<point x="73" y="0" type="line"/>
			<point x="188" y="0" type="line"/>
			<point x="188" y="491" type="line"/>
			<point x="73" y="491" type="line"/>
		</contour>
		<contour>
			<point x="131" y="577" type="curve" smooth="yes"/>
			<point x="171" y="577"/>
			<point x="199" y="604"/>
			<point x="199" y="643" type="curve" smooth="yes"/>
			<point x="199" y="681"/>
			<point x="171" y="708"/>
			<point x="131" y="708" type="curve" smooth="yes"/>
			<point x="92" y="708"/>
			<point x="63" y="681"/>
			<point x="63" y="643" type="curve" smooth="yes"/>
			<point x="63" y="604"/>
			<point x="92" y="577"/>
		</contour>
		<contour>
			<point name="aboveUC" x="131" y="638" type="move"/>
		</contour>
		<contour>
			<point name="ogonekLC" x="166" y="0" type="move"/>
		</contour>
		<contour>
			<point name="baseLC" x="131" y="0" type="move"/>
		</contour>
		<contour>
			<point name="belowLC" x="130" y="-20" type="move"/>
		</contour>
	</outline>
</glyph>
<glyph name="Aacute" format="1">
	<unicode hex="00C1"/>
	<advance width="558"/>
	<outline>
		<component base="A"/>
		<component base="acutecmb.cap" xOffset="277"/>
		<contour>
			<point name="ogonekUC" x="473" y="0" type="move"/>
		</contour>
	</outline>
</glyph>
<glyph name="Eth" format="1">
	<unicode hex="00D0"/>
	<advance width="649"/>
	<outline>
		<contour>
			<point x="30" y="311" type="line"/>
			<point x="360" y="311" type="line"/>
			<point x="360" y="370" type="line"/>
			<point x="109" y="370" type="line"/>
			<point x="30" y="366" type="line"/>
		</contour>
		<component base="D" xOffset="24"/>
		<contour>
			<point name="aboveUC" x="324" y="674" type="move"/>
		</contour>
		<contour>
			<point name="belowLC" x="324" y="-20" type="move"/>
		</contour>
	</outline>
</glyph>
<glyph name="Odieresis" format="1">
	<unicode hex="00D6"/>
	<advance width="674"/>
	<outline>
		<component base="O"/>
		<component base="dieresiscmb.cap" xOffset="337"/>
		<contour>
			<point name="ogonekUC" x="337" y="0" type="move"/>
		</contour>
	</outline>
</glyph>
<glyph name="Oslash" format="1">
	<unicode hex="00D8"/>
	<advance width="674"/>
	<outline>
		<contour>
			<point x="106" y="-36" type="line"/>
			<point x="640" y="642" type="line"/>
			<point x="578" y="690" type="line"/>
			<point x="45" y="12" type="line"/>
		</contour>
		<component base="O" xOffset="2"/>
		<contour>
			<point name="aboveUC" x="339" y="674" type="move"/>
		</contour>
		<contour>
			<point name="baseLC" x="337" y="0" type="move"/>
		</contour>
	</outline>
</glyph>
<glyph name="aacute" format="1">
	<unicode hex="00E1"/>
	<advance width="516"/>
	<outline>
		<component base="a"/>
		<component base="acutecmb" xOffset="278"/>
		<contour>
			<point name="ogonekLC" x="384" y="0" type="move"/>
		</contour>
	</outline>
</glyph>
<glyph name="adieresis" format="1">
	<unicode hex="00E4"/>
	<advance width="516"/>
	<outline>
		<component base="a"/>
		<component base="dieresiscmb" xOffset="278"/>
		<contour>
			<point name="ogonekLC" x="384" y="0" type="move"/>
		</contour>
	</outline>
</glyph>
<glyph name="aring" format="1">
	<unicode hex="00E5"/>
	<advance width="516"/>
	<outline>
		<component base="a"/>
		<component base="ringcmb" xOffset="278"/>
		<contour>
			<point name="ogonekLC" x="384" y="0" type="move"/>
		</contour>
	</outline>
</glyph>
<glyph name="odieresis" format="1">
	<unicode hex="00F6"/>
	<advance width="549"/>
	<outline>
		<component base="o"/>
		<component base="dieresiscmb" xOffset="274"/>
		<contour>
			<point name="ogonekLC" x="274" y="0" type="move"/>
		</contour>
	</outline>
</glyph>
<glyph name="Lslash" format="1">
	<unicode hex="0141"/>
	<advance width="507"/>
	<outline>
		<contour>
			<point x="26" y="188" type="line"/>
			<point x="103" y="233" type="line"/>
			<point x="190" y="269" type="line"/>
			<point x="412" y="389" type="line"/>
			<point x="372" y="460" type="line"/>
			<point x="190" y="360" type="line"/>
			<point x="103" y="324" type="line"/>
			<point x="-15" y="258" type="line"/>
		</contour>
		<component base="L" xOffset="6"/>
		<contour>
			<point name="aboveUC" x="253" y="674" type="move"/>
		</contour>
		<contour>
			<point name="belowLC" x="253" y="-20" type="move"/>
		</contour>
	</outline>
</glyph>
<glyph name="lmiddletilde" format="1">
	<unicode hex="026B"/>
	<advance width="271"/>
	<outline>
		<component base="l"/>
		<component base="tildeoverlaycmb" xOffset="132" yOffset="-30"/>
		<contour>
			<point name="aboveUC" x="130" y="730" type="move"/>
		</contour>
		<contour>
			<point name="aboveLC" x="149" y="604" type="move"/>
		</contour>
		<contour>
			<point name="belowLC" x="156" y="-20" type="move"/>
		</contour>
	</outline>
</glyph>
<glyph name="dezh" format="1">
	<unicode hex="02A4"/>
	<advance width="911"/>
	<outline>
		<contour>
			<point x="421" y="400" type="line"/>
			<point x="596" y="400" type="line"/>
			<point x="596" y="491" type="line"/>
			<point x="421" y="491" type="line"/>
		</contour>
		<component base="d"/>
		<component base="ezh" xOffset="468"/>
		<contour>
			<point name="aboveUC" x="455" y="730" type="move"/>
		</contour>
		<contour>
			<point name="belowLC" x="404" y="-20" type="move"/>
		</contour>
	</outline>
</glyph>
<glyph name="tesh" format="1">
	<unicode hex="02A7"/>
	<advance width="534"/>
	<outline>
		<contour>
			<point x="246" y="-12" type="curve" smooth="yes"/>
			<point x="285" y="-12"/>
			<point x="319" y="-3"/>
			<point x="346" y="6" type="curve"/>
			<point x="326" y="91" type="line"/>
			<point x="312" y="85"/>
			<point x="292" y="80"/>
			<point x="275" y="80" type="curve" smooth="yes"/>
			<point x="228" y="80"/>
			<point x="206" y="108"/>
			<point x="206" y="166" type="curve" smooth="yes"/>
			<point x="206" y="400" type="line"/>
			<point x="331" y="400" type="line"/>
			<point x="331" y="491" type="line"/>
			<point x="206" y="491" type="line"/>
			<point x="206" y="625" type="line"/>
			<point x="110" y="625" type="line"/>
			<point x="96" y="491" type="line"/>
			<point x="20" y="486" type="line"/>
			<point x="20" y="400" type="line"/>
			<point x="90" y="400" type="line"/>
			<point x="90" y="166" type="line" smooth="yes"/>
			<point x="90" y="60"/>
			<point x="132" y="-12"/>
		</contour>
		<contour>
			<point x="393" y="-206" type="curve" smooth="yes"/>
			<point x="509" y="-206"/>
			<point x="548" y="-129"/>
			<point x="548" y="-25" type="curve" smooth="yes"/>
			<point x="548" y="540" type="line" smooth="yes"/>
			<point x="548" y="597"/>
			<point x="563" y="628"/>
			<point x="615" y="628" type="curve" smooth="yes"/>
			<point x="627" y="628"/>
			<point x="637" y="624"/>
			<point x="647" y="620" type="curve"/>
			<point x="668" y="706" type="line"/>
			<point x="652" y="713"/>
			<point x="630" y="719"/>
			<point x="599" y="719" type="curve" smooth="yes"/>
			<point x="475" y="719"/>
			<point x="433" y="642"/>
			<point x="433" y="538" type="curve" smooth="yes"/>
			<point x="433" y="-27" type="line"/>
			<point x="433" y="-84"/>
			<point x="421" y="-115"/>
			<point x="377" y="-115" type="curve" smooth="yes"/>
			<point x="362" y="-115"/>
			<point x="348" y="-111"/>
			<point x="334" y="-107" type="curve"/>
			<point x="313" y="-193" type="line"/>
			<point x="332" y="-200"/>
			<point x="357" y="-206"/>
		</contour>
		<contour>
			<point name="aboveUC" x="267" y="730" type="move"/>
		</contour>
		<contour>
			<point name="belowLC" x="267" y="-20" type="move"/>
		</contour>
	</outline>
</glyph>
<glyph name="heAlef" format="1">
	<unicode hex="05D0"/>
	<advance width="678"/>
	<outline>
		<contour>
			<point x="490" y="170" type="line"/>
			<point x="572" y="280"/>
			<point x="616" y="374"/>
			<point x="616" y="462" type="curve" smooth="yes"/>
			<point x="616" y="541"/>
			<point x="570" y="571"/>
			<point x="472" y="571" type="curve" smooth="yes"/>
			<point x="452" y="571"/>
			<point x="428" y="571"/>
			<point x="396" y="565" type="curve"/>
			<point x="392" y="448" type="line"/>
			<point x="426" y="454"/>
			<point x="448" y="454"/>
			<point x="468" y="454" type="curve" smooth="yes"/>
			<point x="501" y="454"/>
			<point x="516" y="443"/>
			<point x="516" y="410" type="curve" smooth="yes"/>
			<point x="516" y="356"/>
			<point x="477" y="290"/>
			<point x="413" y="210" type="curve"/>
		</contour>
		<contour>
			<point x="88" y="0" type="curve"/>
			<point x="192" y="0" type="line"/>
			<point x="190" y="29"/>
			<point x="188" y="57"/>
			<point x="188" y="82" type="curve" smooth="yes"/>
			<point x="188" y="224"/>
			<point x="213" y="314"/>
			<point x="260" y="404" type="curve"/>
			<point x="172" y="428" type="line"/>
			<point x="118" y="339"/>
			<point x="86" y="242"/>
			<point x="86" y="84" type="curve" smooth="yes"/>
			<point x="86" y="56"/>
			<point x="86" y="29"/>
		</contour>
		<contour>
			<point x="546" y="-12" type="curve"/>
			<point x="636" y="48" type="line"/>
			<point x="470" y="207"/>
			<point x="288" y="405"/>
			<point x="174" y="571" type="curve"/>
			<point x="84" y="511" type="line"/>
			<point x="200" y="340"/>
			<point x="384" y="141"/>
		</contour>
	</outline>
</glyph>
<glyph name="heBet" format="1">
	<unicode hex="05D1"/>
	<advance width="590"/>
	<outline>
		<contour>
			<point x="496" y="20" type="line"/>
			<point x="496" y="361" type="line"/>
			<point x="496" y="505"/>
			<point x="424" y="559"/>
			<point x="318" y="559" type="curve"/>
			<point x="92" y="559" type="line"/>
			<point x="68" y="444" type="line"/>
			<point x="258" y="444" type="line"/>
			<point x="344" y="444"/>
			<point x="396" y="410"/>
			<point x="396" y="294" type="curve"/>
			<point x="396" y="20" type="line"/>
		</contour>
		<contour>
			<point x="548" y="0" type="curve"/>
			<point x="572" y="115" type="line"/>
			<point x="385" y="115"/>
			<point x="163" y="111"/>
			<point x="66" y="103" type="curve"/>
			<point x="42" y="-12" type="line"/>
			<point x="139" y="-3"/>
			<point x="377" y="0"/>
		</contour>
	</outline>
</glyph>
<glyph name="heGimel" format="1">
	<unicode hex="05D2"/>
	<advance width="424"/>
	<outline>
		<contour>
			<point x="262" y="0" type="line"/>
			<point x="362" y="0" type="line"/>
			<point x="326" y="427" type="line"/>
			<point x="320" y="508"/>
			<point x="301" y="545"/>
			<point x="236" y="554" type="curve" smooth="yes"/>
			<point x="116" y="571" type="line"/>
			<point x="92" y="456" type="line"/>
			<point x="172" y="446" type="line" smooth="yes"/>
			<point x="223" y="440"/>
			<point x="230" y="427"/>
			<point x="236" y="354" type="curve"/>
		</contour>
		<contour>
			<point x="46" y="-8" type="line"/>
			<point x="163" y="-2"/>
			<point x="259" y="82"/>
			<point x="265" y="158" type="curve"/>
			<point x="249" y="238" type="line"/>
			<point x="236" y="164"/>
			<point x="158" y="119"/>
			<point x="66" y="113" type="curve"/>
		</contour>
	</outline>
</glyph>
<glyph name="heDalet" format="1">
	<unicode hex="05D3"/>
	<advance width="560"/>
	<outline>
		<contour>
			<point x="20" y="444" type="line"/>
			<point x="510" y="444" type="line"/>
			<point x="534" y="559" type="line"/>
			<point x="44" y="559" type="line"/>
		</contour>
		<contour>
			<point x="322" y="0" type="line"/>
			<point x="422" y="0" type="line"/>
			<point x="422" y="304" type="line"/>
			<point x="422" y="371"/>
			<point x="433" y="417"/>
			<point x="454" y="446" type="curve"/>
			<point x="362" y="446" type="line"/>
			<point x="339" y="416"/>
			<point x="322" y="370"/>
			<point x="322" y="294" type="curve"/>
		</contour>
	</outline>
</glyph>
<glyph name="heHe" format="1">
	<unicode hex="05D4"/>
	<advance width="678"/>
	<outline>
		<contour>
			<point x="488" y="0" type="line"/>
			<point x="588" y="0" type="line"/>
			<point x="588" y="361" type="line" smooth="yes"/>
			<point x="588" y="505"/>
			<point x="516" y="559"/>
			<point x="410" y="559" type="curve"/>
			<point x="104" y="559" type="line"/>
			<point x="80" y="444" type="line"/>
			<point x="354" y="444" type="line"/>
			<point x="435" y="444"/>
			<point x="488" y="409"/>
			<point x="488" y="294" type="curve" smooth="yes"/>
		</contour>
		<contour>
			<point x="102" y="0" type="line"/>
			<point x="202" y="0" type="line"/>
			<point x="202" y="324" type="line"/>
			<point x="102" y="324" type="line"/>
		</contour>
	</outline>
</glyph>
<glyph name="heVav" format="1">
	<unicode hex="05D5"/>
	<advance width="354"/>
	<outline>
		<contour>
			<point x="164" y="0" type="line"/>
			<point x="264" y="0" type="line"/>
			<point x="264" y="427" type="line" smooth="yes"/>
			<point x="264" y="512"/>
			<point x="232" y="545"/>
			<point x="126" y="559" type="curve" smooth="yes"/>
			<point x="34" y="571" type="line"/>
			<point x="10" y="456" type="line"/>
			<point x="92" y="444" type="line" smooth="yes"/>
			<point x="146" y="436"/>
			<point x="164" y="418"/>
			<point x="164" y="355" type="curve" smooth="yes"/>
		</contour>
	</outline>
</glyph>
<glyph name="heZayin" format="1">
	<unicode hex="05D6"/>
	<advance width="400"/>
	<outline>
		<contour>
			<point x="347" y="456" type="curve"/>
			<point x="371" y="561" type="line"/>
			<point x="252" y="561"/>
			<point x="125" y="559"/>
			<point x="41" y="571" type="curve"/>
			<point x="17" y="467" type="line"/>
			<point x="104" y="454"/>
			<point x="227" y="456"/>
		</contour>
		<contour>
			<point x="191" y="0" type="line"/>
			<point x="293" y="0" type="line"/>
			<point x="260" y="183" type="line" smooth="yes"/>
			<point x="246" y="255"/>
			<point x="234" y="311"/>
			<point x="234" y="355" type="curve" smooth="yes"/>
			<point x="234" y="410"/>
			<point x="245" y="444"/>
			<point x="273" y="459" type="curve"/>
			<point x="171" y="459" type="line"/>
			<point x="145" y="444"/>
			<point x="134" y="408"/>
			<point x="134" y="351" type="curve" smooth="yes"/>
			<point x="134" y="309"/>
			<point x="144" y="255"/>
			<point x="158" y="183" type="curve" smooth="yes"/>
		</contour>
	</outline>
</glyph>
<glyph name="heHet" format="1">
	<unicode hex="05D7"/>
	<advance width="700"/>
	<outline>
		<contour>
			<point x="510" y="0" type="line"/>
			<point x="610" y="0" type="line"/>
			<point x="610" y="361" type="line" smooth="yes"/>
			<point x="610" y="506"/>
			<point x="540" y="559"/>
			<point x="430" y="559" type="curve"/>
			<point x="82" y="559" type="line"/>
			<point x="58" y="444" type="line"/>
			<point x="374" y="444" type="line"/>
			<point x="458" y="444"/>
			<point x="510" y="408"/>
			<point x="510" y="294" type="curve" smooth="yes"/>
		</contour>
		<contour>
			<point x="102" y="0" type="line"/>
			<point x="202" y="0" type="line"/>
			<point x="202" y="296" type="line"/>
			<point x="202" y="362"/>
			<point x="213" y="416"/>
			<point x="234" y="446" type="curve"/>
			<point x="142" y="446" type="line"/>
			<point x="120" y="415"/>
			<point x="102" y="362"/>
			<point x="102" y="286" type="curve"/>
		</contour>
	</outline>
</glyph>
<glyph name="heTet" format="1">
	<unicode hex="05D8"/>
	<advance width="626"/>
	<outline>
		<contour>
			<point x="170" y="-12" type="line"/>
			<point x="389" y="8"/>
			<point x="580" y="194"/>
			<point x="580" y="418" type="curve" smooth="yes"/>
			<point x="580" y="533"/>
			<point x="527" y="571"/>
			<point x="416" y="571" type="curve" smooth="yes"/>
			<point x="397" y="571"/>
			<point x="371" y="570"/>
			<point x="344" y="565" type="curve"/>
			<point x="322" y="448" type="line"/>
			<point x="349" y="453"/>
			<point x="371" y="454"/>
			<point x="388" y="454" type="curve" smooth="yes"/>
			<point x="442" y="454"/>
			<point x="468" y="432"/>
			<point x="468" y="370" type="curve" smooth="yes"/>
			<point x="468" y="240"/>
			<point x="368" y="132"/>
			<point x="238" y="120" type="curve"/>
			<point x="126" y="565" type="line"/>
			<point x="26" y="541" type="line"/>
		</contour>
	</outline>
</glyph>
<glyph name="heYod" format="1">
	<unicode hex="05D9"/>
	<advance width="324"/>
	<outline>
		<contour>
			<point x="184" y="174" type="line"/>
			<point x="231" y="261"/>
			<point x="264" y="352"/>
			<point x="264" y="428" type="curve" smooth="yes"/>
			<point x="264" y="517"/>
			<point x="233" y="545"/>
			<point x="144" y="557" type="curve" smooth="yes"/>
			<point x="34" y="571" type="line"/>
			<point x="10" y="456" type="line"/>
			<point x="94" y="445" type="line" smooth="yes"/>
			<point x="153" y="437"/>
			<point x="164" y="424"/>
			<point x="164" y="380" type="curve" smooth="yes"/>
			<point x="164" y="334"/>
			<point x="132" y="267"/>
			<point x="96" y="208" type="curve"/>
		</contour>
	</outline>
</glyph>
<glyph name="heKafFin" format="1">
	<unicode hex="05DA"/>
	<advance width="573"/>
	<outline>
		<contour>
			<point x="383" y="-200" type="line"/>
			<point x="483" y="-200" type="line"/>
			<point x="483" y="362" type="line"/>
			<point x="483" y="505"/>
			<point x="411" y="559"/>
			<point x="305" y="559" type="curve" smooth="yes"/>
			<point x="44" y="559" type="line"/>
			<point x="21" y="444" type="line"/>
			<point x="249" y="444" type="line" smooth="yes"/>
			<point x="330" y="444"/>
			<point x="383" y="409"/>
			<point x="383" y="294" type="curve"/>
		</contour>
	</outline>
</glyph>
<glyph name="heKaf" format="1">
	<unicode hex="05DB"/>
	<advance width="604"/>
	<outline>
		<contour>
			<point x="42" y="-12" type="line"/>
			<point x="171" y="-1"/>
			<point x="316" y="0"/>
			<point x="514" y="0" type="curve"/>
			<point x="514" y="301" type="line"/>
			<point x="514" y="479"/>
			<point x="421" y="559"/>
			<point x="266" y="559" type="curve" smooth="yes"/>
			<point x="92" y="559" type="line"/>
			<point x="68" y="444" type="line"/>
			<point x="218" y="444" type="line" smooth="yes"/>
			<point x="353" y="444"/>
			<point x="414" y="386"/>
			<point x="414" y="240" type="curve"/>
			<point x="414" y="109" type="line"/>
			<point x="275" y="107"/>
			<point x="157" y="106"/>
			<point x="66" y="97" type="curve"/>
		</contour>
	</outline>
</glyph>
<glyph name="heLamed" format="1">
	<unicode hex="05DC"/>
	<advance width="520"/>
	<outline>
		<contour>
			<point x="130" y="-12" type="line"/>
			<point x="396" y="100"/>
			<point x="474" y="263"/>
			<point x="474" y="415" type="curve" smooth="yes"/>
			<point x="474" y="516"/>
			<point x="428" y="559"/>
			<point x="286" y="559" type="curve" smooth="yes"/>
			<point x="148" y="559" type="line"/>
			<point x="148" y="733" type="line"/>
			<point x="48" y="733" type="line"/>
			<point x="48" y="444" type="line"/>
			<point x="262" y="444" type="line" smooth="yes"/>
			<point x="334" y="444"/>
			<point x="362" y="428"/>
			<point x="362" y="367" type="curve" smooth="yes"/>
			<point x="362" y="277"/>
			<point x="293" y="174"/>
			<point x="90" y="104" type="curve"/>
		</contour>
	</outline>
</glyph>
<glyph name="heMemFin" format="1">
	<unicode hex="05DD"/>
	<advance width="694"/>
	<outline>
		<contour>
			<point x="154" y="0" type="line"/>
			<point x="604" y="0" type="line"/>
			<point x="604" y="361" type="line" smooth="yes"/>
			<point x="604" y="507"/>
			<point x="534" y="559"/>
			<point x="426" y="559" type="curve"/>
			<point x="82" y="559" type="line"/>
			<point x="58" y="444" type="line"/>
			<point x="370" y="444" type="line"/>
			<point x="451" y="444"/>
			<point x="504" y="408"/>
			<point x="504" y="294" type="curve" smooth="yes"/>
			<point x="504" y="115" type="line"/>
			<point x="154" y="115" type="line"/>
		</contour>
		<contour>
			<point x="102" y="0" type="line"/>
			<point x="202" y="0" type="line"/>
			<point x="202" y="296" type="line"/>
			<point x="202" y="362"/>
			<point x="213" y="416"/>
			<point x="234" y="446" type="curve"/>
			<point x="142" y="446" type="line"/>
			<point x="120" y="415"/>
			<point x="102" y="362"/>
			<point x="102" y="286" type="curve"/>
		</contour>
	</outline>
</glyph>
<glyph name="heMem" format="1">
	<unicode hex="05DE"/>
	<advance width="738"/>
	<outline>
		<contour>
			<point x="328" y="-12" type="line"/>
			<point x="410" y="-1"/>
			<point x="524" y="0"/>
			<point x="640" y="0" type="curve"/>
			<point x="644" y="68"/>
			<point x="648" y="144"/>
			<point x="648" y="200" type="curve" smooth="yes"/>
			<point x="648" y="477"/>
			<point x="565" y="571"/>
			<point x="426" y="571" type="curve" smooth="yes"/>
			<point x="225" y="571"/>
			<point x="100" y="293"/>
			<point x="100" y="0" type="curve"/>
			<point x="200" y="0" type="line"/>
			<point x="200" y="238"/>
			<point x="287" y="454"/>
			<point x="412" y="454" type="curve" smooth="yes"/>
			<point x="493" y="454"/>
			<point x="544" y="392"/>
			<point x="544" y="200" type="curve" smooth="yes"/>
			<point x="544" y="172"/>
			<point x="543" y="144"/>
			<point x="540" y="115" type="curve"/>
			<point x="473" y="115"/>
			<point x="393" y="112"/>
			<point x="334" y="105" type="curve"/>
		</contour>
		<contour>
			<point x="164" y="334" type="curve"/>
			<point x="248" y="374" type="line"/>
			<point x="236" y="438"/>
			<point x="201" y="520"/>
			<point x="164" y="571" type="curve"/>
			<point x="66" y="533" type="line"/>
			<point x="111" y="480"/>
			<point x="155" y="386"/>
		</contour>
	</outline>
</glyph>
<glyph name="heNunFin" format="1">
	<unicode hex="05DF"/>
	<advance width="366"/>
	<outline>
		<contour>
			<point x="176" y="-200" type="line"/>
			<point x="276" y="-200" type="line"/>
			<point x="276" y="427" type="line" smooth="yes"/>
			<point x="276" y="512"/>
			<point x="241" y="544"/>
			<point x="126" y="559" type="curve" smooth="yes"/>
			<point x="34" y="571" type="line"/>
			<point x="10" y="456" type="line"/>
			<point x="92" y="444" type="line" smooth="yes"/>
			<point x="155" y="435"/>
			<point x="176" y="418"/>
			<point x="176" y="355" type="curve" smooth="yes"/>
		</contour>
	</outline>
</glyph>
<glyph name="heNun" format="1">
	<unicode hex="05E0"/>
	<advance width="440"/>
	<outline>
		<contour>
			<point x="48" y="-12" type="line"/>
			<point x="149" y="-1"/>
			<point x="249" y="0"/>
			<point x="350" y="0" type="curve"/>
			<point x="350" y="424" type="line"/>
			<point x="349" y="507"/>
			<point x="318" y="537"/>
			<point x="218" y="553" type="curve"/>
			<point x="94" y="571" type="line"/>
			<point x="70" y="456" type="line"/>
			<point x="182" y="438" type="line" smooth="yes"/>
			<point x="233" y="430"/>
			<point x="250" y="412"/>
			<point x="250" y="350" type="curve" smooth="yes"/>
			<point x="250" y="115" type="line"/>
			<point x="183" y="114"/>
			<point x="117" y="111"/>
			<point x="54" y="103" type="curve"/>
		</contour>
	</outline>
</glyph>
<glyph name="heSamekh" format="1">
	<unicode hex="05E1"/>
	<advance width="682"/>
	<outline>
		<contour>
			<point x="238" y="-12" type="curve"/>
			<point x="451" y="8"/>
			<point x="636" y="194"/>
			<point x="636" y="419" type="curve" smooth="yes"/>
			<point x="636" y="519"/>
			<point x="590" y="559"/>
			<point x="448" y="559" type="curve" smooth="yes"/>
			<point x="46" y="559" type="line"/>
			<point x="22" y="444" type="line"/>
			<point x="424" y="444" type="line" smooth="yes"/>
			<point x="497" y="444"/>
			<point x="524" y="429"/>
			<point x="524" y="370" type="curve" smooth="yes"/>
			<point x="524" y="236"/>
			<point x="429" y="134"/>
			<point x="300" y="121" type="curve"/>
			<point x="258" y="195"/>
			<point x="218" y="305"/>
			<point x="218" y="366" type="curve" smooth="yes"/>
			<point x="218" y="408"/>
			<point x="233" y="437"/>
			<point x="252" y="470" type="curve"/>
			<point x="154" y="482" type="line"/>
			<point x="136" y="454"/>
			<point x="112" y="414"/>
			<point x="112" y="357" type="curve" smooth="yes"/>
			<point x="112" y="283"/>
			<point x="175" y="110"/>
		</contour>
	</outline>
</glyph>
<glyph name="heAyin" format="1">
	<unicode hex="05E2"/>
	<advance width="650"/>
	<outline>
		<contour>
			<point x="42" y="-32" type="line"/>
			<point x="91" y="-28"/>
			<point x="163" y="-21"/>
			<point x="242" y="-2" type="curve" smooth="yes"/>
			<point x="456" y="50"/>
			<point x="604" y="214"/>
			<point x="604" y="406" type="curve" smooth="yes"/>
			<point x="604" y="543"/>
			<point x="550" y="571"/>
			<point x="426" y="571" type="curve" smooth="yes"/>
			<point x="410" y="571"/>
			<point x="388" y="569"/>
			<point x="366" y="565" type="curve"/>
			<point x="344" y="448" type="line"/>
			<point x="368" y="452"/>
			<point x="388" y="454"/>
			<point x="404" y="454" type="curve" smooth="yes"/>
			<point x="465" y="454"/>
			<point x="492" y="436"/>
			<point x="492" y="370" type="curve" smooth="yes"/>
			<point x="492" y="246"/>
			<point x="400" y="147"/>
			<point x="262" y="111" type="curve" smooth="yes"/>
			<point x="190" y="92"/>
			<point x="115" y="88"/>
			<point x="66" y="83" type="curve"/>
		</contour>
		<contour>
			<point x="219" y="16" type="curve"/>
			<point x="316" y="34" type="line"/>
			<point x="292" y="221"/>
			<point x="224" y="435"/>
			<point x="164" y="565" type="curve"/>
			<point x="62" y="541" type="line"/>
			<point x="123" y="407"/>
			<point x="196" y="199"/>
		</contour>
	</outline>
</glyph>
<glyph name="hePeFin" format="1">
	<unicode hex="05E3"/>
	<advance width="595"/>
	<outline>
		<contour>
			<point x="405" y="-200" type="line"/>
			<point x="505" y="-200" type="line"/>
			<point x="505" y="296" type="line" smooth="yes"/>
			<point x="505" y="463"/>
			<point x="458" y="523"/>
			<point x="326" y="540" type="curve" smooth="yes"/>
			<point x="96" y="571" type="line"/>
			<point x="61" y="433"/>
			<point x="54" y="403"/>
			<point x="54" y="356" type="curve" smooth="yes"/>
			<point x="54" y="237"/>
			<point x="110" y="198"/>
			<point x="246" y="178" type="curve"/>
			<point x="278" y="292" type="line"/>
			<point x="185" y="303"/>
			<point x="156" y="324"/>
			<point x="156" y="370" type="curve" smooth="yes"/>
			<point x="156" y="390"/>
			<point x="159" y="403"/>
			<point x="171" y="450" type="curve"/>
			<point x="284" y="434" type="line" smooth="yes"/>
			<point x="373" y="422"/>
			<point x="405" y="390"/>
			<point x="405" y="290" type="curve"/>
		</contour>
	</outline>
</glyph>
<glyph name="hePe" format="1">
	<unicode hex="05E4"/>
	<advance width="626"/>
	<outline>
		<contour>
			<point x="48" y="-12" type="line"/>
			<point x="176" y="1"/>
			<point x="340" y="0"/>
			<point x="536" y="0" type="curve"/>
			<point x="536" y="297" type="line" smooth="yes"/>
			<point x="536" y="464"/>
			<point x="485" y="524"/>
			<point x="342" y="541" type="curve" smooth="yes"/>
			<point x="96" y="571" type="line"/>
			<point x="62" y="433"/>
			<point x="54" y="403"/>
			<point x="54" y="356" type="curve" smooth="yes"/>
			<point x="54" y="259"/>
			<point x="111" y="222"/>
			<point x="246" y="202" type="curve"/>
			<point x="278" y="316" type="line"/>
			<point x="186" y="327"/>
			<point x="156" y="342"/>
			<point x="156" y="376" type="curve" smooth="yes"/>
			<point x="156" y="394"/>
			<point x="158" y="404"/>
			<point x="169" y="450" type="curve"/>
			<point x="282" y="435" type="line" smooth="yes"/>
			<point x="395" y="420"/>
			<point x="436" y="390"/>
			<point x="436" y="291" type="curve" smooth="yes"/>
			<point x="436" y="115" type="line"/>
			<point x="289" y="113"/>
			<point x="149" y="114"/>
			<point x="54" y="103" type="curve"/>
		</contour>
	</outline>
</glyph>
<glyph name="heTsadi" format="1">
	<unicode hex="05E6"/>
	<advance width="630"/>
	<outline>
		<contour>
			<point x="420" y="194" type="line"/>
			<point x="500" y="289"/>
			<point x="546" y="376"/>
			<point x="546" y="462" type="curve" smooth="yes"/>
			<point x="546" y="541"/>
			<point x="500" y="571"/>
			<point x="402" y="571" type="curve" smooth="yes"/>
			<point x="382" y="571"/>
			<point x="358" y="571"/>
			<point x="326" y="565" type="curve"/>
			<point x="322" y="448" type="line"/>
			<point x="356" y="454"/>
			<point x="378" y="454"/>
			<point x="398" y="454" type="curve" smooth="yes"/>
			<point x="431" y="454"/>
			<point x="446" y="443"/>
			<point x="446" y="410" type="curve" smooth="yes"/>
			<point x="446" y="362"/>
			<point x="415" y="302"/>
			<point x="343" y="234" type="curve"/>
		</contour>
		<contour>
			<point x="48" y="-12" type="line"/>
			<point x="181" y="0"/>
			<point x="342" y="0"/>
			<point x="538" y="0" type="curve"/>
			<point x="559" y="115" type="line"/>
			<point x="356" y="113"/>
			<point x="186" y="118"/>
			<point x="54" y="103" type="curve"/>
		</contour>
		<contour>
			<point x="472" y="52" type="curve"/>
			<point x="559" y="115" type="line"/>
			<point x="375" y="245"/>
			<point x="210" y="414"/>
			<point x="108" y="571" type="curve"/>
			<point x="18" y="511" type="line"/>
			<point x="123" y="348"/>
			<point x="294" y="173"/>
		</contour>
	</outline>
</glyph>
<glyph name="heQof" format="1">
	<unicode hex="05E7"/>
	<advance width="630"/>
	<outline>
		<contour>
			<point x="300" y="-12" type="line"/>
			<point x="516" y="108"/>
			<point x="584" y="263"/>
			<point x="584" y="415" type="curve" smooth="yes"/>
			<point x="584" y="516"/>
			<point x="538" y="559"/>
			<point x="396" y="559" type="curve"/>
			<point x="104" y="559" type="line"/>
			<point x="80" y="444" type="line"/>
			<point x="372" y="444" type="line"/>
			<point x="445" y="444"/>
			<point x="472" y="428"/>
			<point x="472" y="367" type="curve" smooth="yes"/>
			<point x="472" y="277"/>
			<point x="414" y="188"/>
			<point x="260" y="104" type="curve"/>
		</contour>
		<contour>
			<point x="102" y="-200" type="line"/>
			<point x="202" y="-200" type="line"/>
			<point x="202" y="324" type="line"/>
			<point x="102" y="324" type="line"/>
		</contour>
	</outline>
</glyph>
<glyph name="heResh" format="1">
	<unicode hex="05E8"/>
	<advance width="555"/>
	<outline>
		<contour>
			<point x="365" y="0" type="line"/>
			<point x="465" y="0" type="line"/>
			<point x="465" y="361" type="line" smooth="yes"/>
			<point x="465" y="505"/>
			<point x="394" y="559"/>
			<point x="288" y="559" type="curve"/>
			<point x="44" y="559" type="line"/>
			<point x="20" y="444" type="line"/>
			<point x="232" y="444" type="line"/>
			<point x="312" y="444"/>
			<point x="365" y="409"/>
			<point x="365" y="294" type="curve" smooth="yes"/>
		</contour>
	</outline>
</glyph>
<glyph name="heShin" format="1">
	<unicode hex="05E9"/>
	<advance width="750"/>
	<outline>
		<contour>
			<point x="178" y="-12" type="line"/>
			<point x="503" y="6"/>
			<point x="712" y="197"/>
			<point x="712" y="435" type="curve" smooth="yes"/>
			<point x="712" y="525"/>
			<point x="679" y="571"/>
			<point x="594" y="571" type="curve" smooth="yes"/>
			<point x="574" y="571"/>
			<point x="548" y="570"/>
			<point x="522" y="565" type="curve"/>
			<point x="500" y="448" type="line"/>
			<point x="519" y="451"/>
			<point x="535" y="454"/>
			<point x="548" y="454" type="curve" smooth="yes"/>
			<point x="583" y="454"/>
			<point x="600" y="441"/>
			<point x="600" y="397" type="curve" smooth="yes"/>
			<point x="600" y="243"/>
			<point x="469" y="130"/>
			<point x="246" y="115" type="curve"/>
			<point x="126" y="565" type="line"/>
			<point x="26" y="541" type="line"/>
		</contour>
		<contour>
			<point x="352" y="218" type="line"/>
			<point x="408" y="303"/>
			<point x="452" y="391"/>
			<point x="452" y="444" type="curve" smooth="yes"/>
			<point x="452" y="527"/>
			<point x="423" y="571"/>
			<point x="344" y="571" type="curve" smooth="yes"/>
			<point x="325" y="571"/>
			<point x="302" y="570"/>
			<point x="274" y="565" type="curve"/>
			<point x="252" y="448" type="line"/>
			<point x="272" y="451"/>
			<point x="286" y="454"/>
			<point x="298" y="454" type="curve" smooth="yes"/>
			<point x="326" y="454"/>
			<point x="340" y="442"/>
			<point x="340" y="406" type="curve" smooth="yes"/>
			<point x="340" y="362"/>
			<point x="307" y="310"/>
			<point x="263" y="246" type="curve"/>
		</contour>
	</outline>
</glyph>
<glyph name="heTav" format="1">
	<unicode hex="05EA"/>
	<advance width="746"/>
	<outline>
		<contour>
			<point x="46" y="-12" type="line"/>
			<point x="108" y="-4"/>
			<point x="230" y="0"/>
			<point x="270" y="0" type="curve"/>
			<point x="262" y="130"/>
			<point x="256" y="240"/>
			<point x="256" y="332" type="curve" smooth="yes"/>
			<point x="256" y="412"/>
			<point x="272" y="483"/>
			<point x="296" y="518" type="curve"/>
			<point x="196" y="518" type="line"/>
			<point x="173" y="483"/>
			<point x="156" y="414"/>
			<point x="156" y="334" type="curve" smooth="yes"/>
			<point x="156" y="275"/>
			<point x="160" y="203"/>
			<point x="166" y="115" type="curve"/>
			<point x="149" y="114"/>
			<point x="99" y="109"/>
			<point x="70" y="103" type="curve"/>
		</contour>
		<contour>
			<point x="556" y="0" type="line"/>
			<point x="656" y="0" type="line"/>
			<point x="656" y="361" type="line" smooth="yes"/>
			<point x="656" y="507"/>
			<point x="586" y="559"/>
			<point x="478" y="559" type="curve"/>
			<point x="98" y="559" type="line"/>
			<point x="74" y="444" type="line"/>
			<point x="422" y="444" type="line"/>
			<point x="502" y="444"/>
			<point x="556" y="408"/>
			<point x="556" y="294" type="curve" smooth="yes"/>
		</contour>
	</outline>
</glyph>
<glyph name="quotesinglbase.lat" format="1">
	<advance width="275"/>
	<outline>
		<contour>
			<point x="95" y="-157" type="line"/>
			<point x="178" y="-114"/>
			<point x="220" y="-48"/>
			<point x="220" y="39" type="curve" smooth="yes"/>
			<point x="220" y="109"/>
			<point x="192" y="150"/>
			<point x="141" y="150" type="curve" smooth="yes"/>
			<point x="103" y="150"/>
			<point x="76" y="123"/>
			<point x="76" y="81" type="curve" smooth="yes"/>
			<point x="76" y="42"/>
			<point x="106" y="19"/>
			<point x="141" y="19" type="curve" smooth="yes"/>
			<point x="159" y="19"/>
			<point x="174" y="26"/>
			<point x="187" y="38" type="curve"/>
			<point x="142" y="97" type="line"/>
			<point x="150" y="21" type="line"/>
			<point x="150" y="-38"/>
			<point x="122" y="-74"/>
			<point x="67" y="-106" type="curve"/>
		</contour>
	</outline>
</glyph>
